<svg width="678" height="104" viewBox="0 0 678 104" fill="none" xmlns="http://www.w3.org/2000/svg">
<path d="M35.6 103.44C27.728 103.44 21.008 102 15.44 99.12C9.872 96.24 4.928 92.064 0.608 86.592L9.824 77.376C12.992 81.792 16.64 85.152 20.768 87.456C24.896 89.664 29.984 90.768 36.032 90.768C41.984 90.768 46.736 89.472 50.288 86.88C53.936 84.288 55.76 80.736 55.76 76.224C55.76 72.48 54.896 69.456 53.168 67.152C51.44 64.848 49.088 62.976 46.112 61.536C43.232 60 40.064 58.656 36.608 57.504C33.152 56.256 29.696 54.96 26.24 53.616C22.784 52.176 19.616 50.448 16.736 48.432C13.856 46.32 11.504 43.584 9.68 40.224C7.952 36.864 7.088 32.64 7.088 27.552C7.088 21.888 8.432 17.088 11.12 13.152C13.904 9.11999 17.648 6.04799 22.352 3.93599C27.152 1.72799 32.528 0.623992 38.48 0.623992C45.008 0.623992 50.864 1.91999 56.048 4.51199C61.232 7.008 65.456 10.32 68.72 14.448L59.504 23.664C56.528 20.208 53.312 17.616 49.856 15.888C46.496 14.16 42.608 13.296 38.192 13.296C32.816 13.296 28.544 14.496 25.376 16.896C22.208 19.2 20.624 22.464 20.624 26.688C20.624 30.048 21.488 32.784 23.216 34.896C25.04 36.912 27.392 38.64 30.272 40.08C33.152 41.52 36.32 42.864 39.776 44.112C43.328 45.264 46.832 46.56 50.288 48C53.744 49.44 56.912 51.264 59.792 53.472C62.672 55.68 64.976 58.56 66.704 62.112C68.528 65.568 69.44 69.936 69.44 75.216C69.44 84.048 66.368 90.96 60.224 95.952C54.176 100.944 45.968 103.44 35.6 103.44ZM113.483 103.44C107.243 103.44 101.579 101.904 96.4906 98.832C91.4026 95.664 87.3706 91.392 84.3946 86.016C81.5146 80.64 80.0746 74.592 80.0746 67.872C80.0746 61.152 81.5146 55.104 84.3946 49.728C87.3706 44.352 91.3546 40.08 96.3466 36.912C101.435 33.744 107.147 32.16 113.483 32.16C118.667 32.16 123.275 33.264 127.307 35.472C131.435 37.584 134.747 40.56 137.243 44.4C139.739 48.144 141.131 52.512 141.419 57.504V78.096C141.131 82.992 139.739 87.36 137.243 91.2C134.843 95.04 131.579 98.064 127.451 100.272C123.419 102.384 118.763 103.44 113.483 103.44ZM115.643 91.2C122.075 91.2 127.259 89.04 131.195 84.72C135.131 80.304 137.099 74.688 137.099 67.872C137.099 63.168 136.187 59.088 134.363 55.632C132.635 52.08 130.139 49.344 126.875 47.424C123.611 45.408 119.819 44.4 115.499 44.4C111.179 44.4 107.339 45.408 103.979 47.424C100.715 49.44 98.1226 52.224 96.2026 55.776C94.3786 59.232 93.4666 63.216 93.4666 67.728C93.4666 72.336 94.3786 76.416 96.2026 79.968C98.1226 83.424 100.763 86.16 104.123 88.176C107.483 90.192 111.323 91.2 115.643 91.2ZM136.235 102V83.568L138.683 66.864L136.235 50.304V33.6H149.339V102H136.235ZM168.207 102V33.6H181.167V102H168.207ZM214.431 102V60.672C214.431 55.584 212.847 51.6 209.679 48.72C206.607 45.744 202.719 44.256 198.015 44.256C194.847 44.256 192.015 44.928 189.519 46.272C187.023 47.616 185.007 49.488 183.471 51.888C181.935 54.288 181.167 57.168 181.167 60.528L175.839 57.936C175.839 52.752 176.943 48.24 179.151 44.4C181.455 40.56 184.575 37.584 188.511 35.472C192.447 33.264 196.863 32.16 201.759 32.16C206.559 32.16 210.879 33.216 214.719 35.328C218.655 37.44 221.727 40.416 223.935 44.256C226.239 48.096 227.391 52.656 227.391 57.936V102H214.431ZM260.655 102V60.672C260.655 55.584 259.071 51.6 255.903 48.72C252.831 45.744 248.991 44.256 244.383 44.256C241.215 44.256 238.335 44.928 235.743 46.272C233.247 47.616 231.231 49.488 229.695 51.888C228.159 54.288 227.391 57.168 227.391 60.528L220.047 57.936C220.335 52.656 221.727 48.144 224.223 44.4C226.815 40.56 230.127 37.584 234.159 35.472C238.191 33.264 242.607 32.16 247.407 32.16C252.399 32.16 256.863 33.216 260.799 35.328C264.735 37.44 267.855 40.416 270.159 44.256C272.559 48.096 273.759 52.704 273.759 58.08V102H260.655ZM323.075 103.44C316.259 103.44 310.115 101.904 304.643 98.832C299.171 95.664 294.851 91.392 291.683 86.016C288.515 80.64 286.931 74.544 286.931 67.728C286.931 61.008 288.467 54.96 291.539 49.584C294.707 44.208 298.931 39.984 304.211 36.912C309.587 33.744 315.587 32.16 322.211 32.16C328.547 32.16 334.115 33.6 338.915 36.48C343.811 39.36 347.603 43.344 350.291 48.432C353.075 53.52 354.467 59.28 354.467 65.712C354.467 66.672 354.419 67.728 354.323 68.88C354.227 69.936 354.035 71.184 353.747 72.624H296.003V61.824H346.835L342.083 66C342.083 61.392 341.267 57.504 339.635 54.336C338.003 51.072 335.699 48.576 332.723 46.848C329.747 45.024 326.147 44.112 321.923 44.112C317.507 44.112 313.619 45.072 310.259 46.992C306.899 48.912 304.307 51.6 302.483 55.056C300.659 58.512 299.747 62.592 299.747 67.296C299.747 72.096 300.707 76.32 302.627 79.968C304.547 83.52 307.283 86.304 310.835 88.32C314.387 90.24 318.467 91.2 323.075 91.2C326.915 91.2 330.419 90.528 333.587 89.184C336.851 87.84 339.635 85.824 341.939 83.136L350.291 91.632C347.027 95.472 342.995 98.4 338.195 100.416C333.491 102.432 328.451 103.44 323.075 103.44ZM400.278 103.44C393.462 103.44 387.318 101.904 381.846 98.832C376.374 95.664 372.054 91.392 368.886 86.016C365.718 80.64 364.134 74.544 364.134 67.728C364.134 61.008 365.67 54.96 368.742 49.584C371.91 44.208 376.134 39.984 381.414 36.912C386.79 33.744 392.79 32.16 399.414 32.16C405.75 32.16 411.318 33.6 416.118 36.48C421.014 39.36 424.806 43.344 427.494 48.432C430.278 53.52 431.67 59.28 431.67 65.712C431.67 66.672 431.622 67.728 431.526 68.88C431.43 69.936 431.238 71.184 430.95 72.624H373.206V61.824H424.038L419.286 66C419.286 61.392 418.47 57.504 416.838 54.336C415.206 51.072 412.902 48.576 409.926 46.848C406.95 45.024 403.35 44.112 399.126 44.112C394.71 44.112 390.822 45.072 387.462 46.992C384.102 48.912 381.51 51.6 379.686 55.056C377.862 58.512 376.95 62.592 376.95 67.296C376.95 72.096 377.91 76.32 379.83 79.968C381.75 83.52 384.486 86.304 388.038 88.32C391.59 90.24 395.67 91.2 400.278 91.2C404.118 91.2 407.622 90.528 410.79 89.184C414.054 87.84 416.838 85.824 419.142 83.136L427.494 91.632C424.23 95.472 420.198 98.4 415.398 100.416C410.694 102.432 405.654 103.44 400.278 103.44ZM445.801 102V33.6H458.761V102H445.801ZM458.761 62.976L453.865 60.816C453.865 52.08 455.881 45.12 459.913 39.936C463.945 34.752 469.753 32.16 477.337 32.16C480.793 32.16 483.913 32.784 486.697 34.032C489.481 35.184 492.073 37.152 494.473 39.936L485.977 48.72C484.537 47.184 482.953 46.08 481.225 45.408C479.497 44.736 477.481 44.4 475.177 44.4C470.377 44.4 466.441 45.936 463.369 49.008C460.297 52.08 458.761 56.736 458.761 62.976ZM538.386 102V2.064H547.89L590.226 71.616H583.746L626.082 2.064H635.586V102H622.05V25.824L625.218 26.688L591.81 81.552H582.306L548.898 26.688L551.922 25.824V102H538.386ZM668.255 103.44C665.567 103.44 663.311 102.528 661.487 100.704C659.759 98.784 658.895 96.528 658.895 93.936C658.895 91.248 659.759 89.04 661.487 87.312C663.311 85.488 665.567 84.576 668.255 84.576C670.943 84.576 673.151 85.488 674.879 87.312C676.703 89.04 677.615 91.248 677.615 93.936C677.615 96.528 676.703 98.784 674.879 100.704C673.151 102.528 670.943 103.44 668.255 103.44Z" fill="url(#paint0_linear_16_2)"/>
<defs>
<linearGradient id="paint0_linear_16_2" x1="2" y1="6.99997" x2="665" y2="94.0024" gradientUnits="userSpaceOnUse">
<stop stop-color="#325DF6"/>
<stop offset="1" stop-color="#9849FC"/>
</linearGradient>
</defs>
</svg>
