<svg xmlns="http://www.w3.org/2000/svg" xmlns:xlink="http://www.w3.org/1999/xlink" width="462.33599999999996" height="120.96000000000001"><path fill="#2563eb" d="M26.02 96.96L26.02 96.96Q18.05 96.96 12.48 94.08Q6.91 91.20 2.50 85.63L2.50 85.63L9.98 78.14Q12.77 82.18 16.61 84.43Q20.45 86.69 26.40 86.69L26.40 86.69Q31.97 86.69 35.28 84.38Q38.59 82.08 38.59 78.05L38.59 78.05Q38.59 74.69 36.86 72.58Q35.14 70.46 32.30 69.07Q29.47 67.68 26.06 66.58Q22.66 65.47 19.25 64.08Q15.84 62.69 13.01 60.58Q10.18 58.46 8.45 55.10Q6.72 51.74 6.72 46.56L6.72 46.56Q6.72 40.61 9.65 36.43Q12.58 32.26 17.57 30.05Q22.56 27.84 28.70 27.84L28.70 27.84Q35.33 27.84 40.56 30.43Q45.79 33.02 49.06 37.06L49.06 37.06L41.57 44.54Q38.69 41.28 35.57 39.70Q32.45 38.11 28.42 38.11L28.42 38.11Q23.42 38.11 20.59 40.13Q17.76 42.14 17.76 45.79L17.76 45.79Q17.76 48.86 19.49 50.74Q21.22 52.61 24.05 53.90Q26.88 55.20 30.29 56.35Q33.70 57.50 37.10 58.94Q40.51 60.38 43.34 62.64Q46.18 64.90 47.90 68.45Q49.63 72 49.63 77.38L49.63 77.38Q49.63 86.40 43.25 91.68Q36.86 96.96 26.02 96.96ZM77.95 96.96L77.95 96.96Q71.71 96.96 66.67 93.79Q61.63 90.62 58.70 85.20Q55.78 79.78 55.78 73.06L55.78 73.06Q55.78 66.24 58.70 60.82Q61.63 55.39 66.67 52.18Q71.71 48.96 77.95 48.96L77.95 48.96Q83.23 48.96 87.31 51.22Q91.39 53.47 93.79 57.41Q96.19 61.34 96.19 66.34L96.19 66.34L96.19 79.58Q96.19 84.58 93.84 88.51Q91.49 92.45 87.36 94.70Q83.23 96.96 77.95 96.96ZM79.68 86.98L79.68 86.98Q85.54 86.98 89.14 83.04Q92.74 79.10 92.74 72.96L92.74 72.96Q92.74 68.83 91.10 65.66Q89.47 62.50 86.54 60.72Q83.62 58.94 79.68 58.94L79.68 58.94Q75.84 58.94 72.91 60.72Q69.98 62.50 68.30 65.66Q66.62 68.83 66.62 72.96L66.62 72.96Q66.62 77.09 68.30 80.26Q69.98 83.42 72.91 85.20Q75.84 86.98 79.68 86.98ZM102.62 96L92.06 96L92.06 83.62L93.89 72.38L92.06 61.25L92.06 49.92L102.62 49.92L102.62 96ZM124.90 96L114.34 96L114.34 49.92L124.90 49.92L124.90 96ZM155.52 96L144.96 96L144.96 68.54Q144.96 63.94 142.08 61.39Q139.20 58.85 134.98 58.85L134.98 58.85Q132.10 58.85 129.84 60Q127.58 61.15 126.24 63.31Q124.90 65.47 124.90 68.54L124.90 68.54L120.77 66.24Q120.77 60.96 123.07 57.12Q125.38 53.28 129.31 51.12Q133.25 48.96 138.14 48.96L138.14 48.96Q143.04 48.96 146.98 51.07Q150.91 53.18 153.22 57.02Q155.52 60.86 155.52 66.24L155.52 66.24L155.52 96ZM186.14 96L175.58 96L175.58 68.54Q175.58 63.94 172.70 61.39Q169.82 58.85 165.60 58.85L165.60 58.85Q162.82 58.85 160.51 60Q158.21 61.15 156.86 63.31Q155.52 65.47 155.52 68.54L155.52 68.54L149.57 66.24Q150.05 60.96 152.64 57.12Q155.23 53.28 159.31 51.12Q163.39 48.96 168.29 48.96L168.29 48.96Q173.28 48.96 177.31 51.07Q181.34 53.18 183.74 57.02Q186.14 60.86 186.14 66.24L186.14 66.24L186.14 96ZM218.40 96.96L218.40 96.96Q211.49 96.96 205.97 93.84Q200.45 90.72 197.23 85.25Q194.02 79.78 194.02 72.96L194.02 72.96Q194.02 66.14 197.18 60.72Q200.35 55.30 205.78 52.13Q211.20 48.96 217.82 48.96L217.82 48.96Q224.26 48.96 229.20 51.94Q234.14 54.91 236.98 60.10Q239.81 65.28 239.81 71.90L239.81 71.90Q239.81 73.06 239.66 74.26Q239.52 75.46 239.23 76.90L239.23 76.90L201.41 76.90L201.41 68.26L233.76 68.26L229.82 71.71Q229.63 67.49 228.19 64.61Q226.75 61.73 224.11 60.19Q221.47 58.66 217.63 58.66L217.63 58.66Q213.60 58.66 210.62 60.38Q207.65 62.11 206.02 65.23Q204.38 68.35 204.38 72.67L204.38 72.67Q204.38 76.99 206.11 80.26Q207.84 83.52 211.01 85.30Q214.18 87.07 218.30 87.07L218.30 87.07Q221.86 87.07 224.88 85.82Q227.90 84.58 230.02 82.18L230.02 82.18L236.74 88.99Q233.38 92.93 228.58 94.94Q223.78 96.96 218.40 96.96ZM269.66 96.96L269.66 96.96Q262.75 96.96 257.23 93.84Q251.71 90.72 248.50 85.25Q245.28 79.78 245.28 72.96L245.28 72.96Q245.28 66.14 248.45 60.72Q251.62 55.30 257.04 52.13Q262.46 48.96 269.09 48.96L269.09 48.96Q275.52 48.96 280.46 51.94Q285.41 54.91 288.24 60.10Q291.07 65.28 291.07 71.90L291.07 71.90Q291.07 73.06 290.93 74.26Q290.78 75.46 290.50 76.90L290.50 76.90L252.67 76.90L252.67 68.26L285.02 68.26L281.09 71.71Q280.90 67.49 279.46 64.61Q278.02 61.73 275.38 60.19Q272.74 58.66 268.90 58.66L268.90 58.66Q264.86 58.66 261.89 60.38Q258.91 62.11 257.28 65.23Q255.65 68.35 255.65 72.67L255.65 72.67Q255.65 76.99 257.38 80.26Q259.10 83.52 262.27 85.30Q265.44 87.07 269.57 87.07L269.57 87.07Q273.12 87.07 276.14 85.82Q279.17 84.58 281.28 82.18L281.28 82.18L288 88.99Q284.64 92.93 279.84 94.94Q275.04 96.96 269.66 96.96ZM310.08 96L299.52 96L299.52 49.92L310.08 49.92L310.08 96ZM310.08 70.37L310.08 70.37L306.43 68.54Q306.43 59.81 310.32 54.38Q314.21 48.96 322.08 48.96L322.08 48.96Q325.54 48.96 328.32 50.21Q331.10 51.46 333.50 54.24L333.50 54.24L326.59 61.34Q325.34 60 323.81 59.42Q322.27 58.85 320.26 58.85L320.26 58.85Q315.84 58.85 312.96 61.63Q310.08 64.42 310.08 70.37ZM372 96L360.96 96L360.96 28.80L368.64 28.80L396.58 74.78L391.58 74.78L419.52 28.80L427.20 28.80L427.20 96L416.16 96L416.16 48.19L418.66 48.86L397.92 82.94L390.24 82.94L369.50 48.86L372 48.19L372 96ZM448.42 96.96L448.42 96.96Q445.34 96.96 443.38 94.90Q441.41 92.83 441.41 89.86L441.41 89.86Q441.41 86.78 443.38 84.77Q445.34 82.75 448.42 82.75L448.42 82.75Q451.49 82.75 453.46 84.77Q455.42 86.78 455.42 89.86L455.42 89.86Q455.42 92.83 453.46 94.90Q451.49 96.96 448.42 96.96Z"/></svg>